<svg width="150" height="150" viewBox="0 0 150 150" fill="none" xmlns="http://www.w3.org/2000/svg">
<path fill-rule="evenodd" clip-rule="evenodd" d="M117.188 118.294C120.066 115.716 121.875 111.975 121.875 107.813V65.4094C121.876 63.2555 121.381 61.1302 120.43 59.1975C119.48 57.2649 118.097 55.5764 116.391 54.2625L83.5781 29.025C81.1192 27.1321 78.1032 26.1057 75 26.1057C71.8968 26.1057 68.8808 27.1321 66.4219 29.025L33.6094 54.2625C31.9013 55.5774 30.5184 57.2673 29.5675 59.2017C28.6165 61.1361 28.123 63.2633 28.125 65.4188V107.813C28.1201 109.655 28.4783 111.481 29.1791 113.185C29.88 114.889 30.9098 116.438 32.2096 117.744C33.5095 119.05 35.0539 120.087 36.7547 120.796C38.4555 121.505 40.2793 121.871 42.1219 121.875H46.875V89.0625C46.875 84.0897 48.8504 79.3206 52.3667 75.8043C55.8831 72.288 60.6522 70.3125 65.625 70.3125H84.375C89.3478 70.3125 94.1169 72.288 97.6332 75.8043C101.15 79.3206 103.125 84.0897 103.125 89.0625V121.875H107.878C111.45 121.856 114.722 120.506 117.188 118.294ZM135.938 107.813C135.938 115.272 132.974 122.425 127.7 127.7C122.425 132.974 115.272 135.938 107.812 135.938H42.1875C34.7283 135.938 27.5746 132.974 22.3001 127.7C17.0257 122.425 14.0625 115.272 14.0625 107.813V65.4094C14.0628 61.1031 15.0519 56.8544 16.9537 52.9908C18.8554 49.1272 21.6189 45.7519 25.0313 43.125L57.8438 17.8875C62.7616 14.1017 68.7937 12.0488 75 12.0488C81.2063 12.0488 87.2383 14.1017 92.1562 17.8875L124.969 43.125C128.382 45.7528 131.147 49.1297 133.048 52.995C134.95 56.8604 135.939 61.1109 135.938 65.4188V107.813ZM89.0625 89.0625C89.0625 87.8193 88.5686 86.627 87.6896 85.748C86.8105 84.8689 85.6182 84.375 84.375 84.375H65.625C64.3818 84.375 63.1895 84.8689 62.3104 85.748C61.4314 86.627 60.9375 87.8193 60.9375 89.0625V121.875H89.0625V89.0625Z" fill="#800080"/>
</svg>
