<svg width="126" height="100" viewBox="0 0 126 100" fill="none" xmlns="http://www.w3.org/2000/svg">
<path d="M0.5 12.5C0.5 9.18479 1.81696 6.00537 4.16116 3.66116C6.50537 1.31696 9.68479 0 13 0H113C116.315 0 119.495 1.31696 121.839 3.66116C124.183 6.00537 125.5 9.18479 125.5 12.5V87.5C125.5 90.8152 124.183 93.9946 121.839 96.3388C119.495 98.683 116.315 100 113 100H13C9.68479 100 6.50537 98.683 4.16116 96.3388C1.81696 93.9946 0.5 90.8152 0.5 87.5V12.5ZM22.4937 12.5L63 47.9437L103.506 12.5H22.4937ZM113 20.8062L67.1188 60.9563C65.979 61.9548 64.5153 62.5054 63 62.5054C61.4847 62.5054 60.021 61.9548 58.8812 60.9563L13 20.8062V87.5H113V20.8062Z" fill="#800080"/>
</svg>
