<svg width="123" height="123" viewBox="0 0 123 123" fill="none" xmlns="http://www.w3.org/2000/svg">
<path d="M115.25 79.7032L87.6582 67.3341L87.5528 67.2872C85.7593 66.514 83.8006 66.2028 81.8558 66.3819C79.9109 66.561 78.042 67.2248 76.42 68.3126C76.1925 68.4648 75.9735 68.6291 75.7637 68.8048L62.6914 79.9376C55.0743 75.8067 47.2051 68.0021 43.0684 60.4786L54.2364 47.2013C54.4156 46.9868 54.5819 46.7618 54.7344 46.5275C55.7937 44.9112 56.4368 43.058 56.6065 41.133C56.7762 39.208 56.4672 37.2709 55.7071 35.4943C55.689 35.4602 55.6733 35.425 55.6602 35.3888L43.2969 7.75011C42.2821 5.43873 40.5501 3.51547 38.3572 2.26497C36.1644 1.01447 33.6272 0.503176 31.1211 0.806753C22.6155 1.9241 14.8074 6.09937 9.15515 12.5528C3.50289 19.0062 0.392998 27.2964 0.406292 35.8751C0.406292 83.6935 39.3067 122.594 87.125 122.594C95.7038 122.607 103.994 119.497 110.447 113.845C116.901 108.193 121.076 100.385 122.193 91.879C122.497 89.373 121.986 86.8358 120.735 84.6429C119.485 82.4501 117.561 80.7181 115.25 79.7032ZM87.125 108.531C67.8625 108.508 49.3957 100.846 35.775 87.2251C22.1544 73.6045 14.4921 55.1376 14.4688 35.8751C14.4554 31.0206 16.1035 26.3076 19.1392 22.5194C22.1749 18.7311 26.4155 16.0956 31.1563 15.0509L42.1836 39.6603L30.9571 53.0314C30.7756 53.2476 30.6073 53.4746 30.4532 53.7111C29.3466 55.4018 28.6961 57.3499 28.5646 59.3663C28.4332 61.3827 28.8254 63.3988 29.7032 65.2189C35.2227 76.5157 46.5957 87.8126 58.0098 93.3439C59.842 94.2125 61.8683 94.5908 63.8905 94.4419C65.9127 94.293 67.8617 93.6219 69.5469 92.4943C69.7732 92.341 69.9904 92.1747 70.1973 91.9962L83.3399 80.8224L107.949 91.8439C106.905 96.5847 104.269 100.825 100.481 103.861C96.6925 106.897 91.9796 108.545 87.125 108.531Z" fill="#800080"/>
</svg>
