<svg width="17" height="16" viewBox="0 0 17 16" fill="none" xmlns="http://www.w3.org/2000/svg">
<path d="M3.69016 7.14981C4.9279 9.58232 6.92204 11.5679 9.35454 12.8142L11.2455 10.9232C11.4776 10.6911 11.8214 10.6138 12.1223 10.7169C13.085 11.0349 14.125 11.2069 15.1908 11.2069C15.6636 11.2069 16.0504 11.5936 16.0504 12.0664V15.0662C16.0504 15.5389 15.6636 15.9257 15.1908 15.9257C7.11973 15.9257 0.578613 9.38463 0.578613 1.31352C0.578613 0.840774 0.965407 0.453979 1.43816 0.453979H4.44655C4.9193 0.453979 5.3061 0.840774 5.3061 1.31352C5.3061 2.38795 5.478 3.4194 5.79604 4.38209C5.89058 4.68293 5.82182 5.01815 5.58115 5.25882L3.69016 7.14981Z" fill="#800080"/>
</svg>
